<svg width="12" height="14" viewBox="0 0 12 14" fill="none" xmlns="http://www.w3.org/2000/svg">
<g opacity="0.6">
<path fill-rule="evenodd" clip-rule="evenodd" d="M5.48049 1.44824e-05C5.32896 0.00401448 5.18744 0.0766406 5.09571 0.197311L0.146486 5.1465C-0.168304 5.4615 0.0546973 5.99984 0.500017 6.00001H5.50002C5.77615 5.99998 5.99999 5.77614 6.00002 5.50001V1.00001H11V13H1.00002V7.00001H1.73496e-05V13.5C4.73495e-05 13.7761 0.223887 14 0.500017 14H11.5C11.7761 14 12 13.7761 12 13.5V0.500014C12 0.223884 11.7761 4.44824e-05 11.5 1.44824e-05H5.50002C5.49502 -4.55176e-05 5.49101 -4.55176e-05 5.48631 1.44824e-05C5.48564 3.44824e-05 5.48532 -5.51758e-06 5.48432 1.44824e-05C5.48332 5.44824e-05 5.48132 -3.55176e-05 5.48032 1.44824e-05H5.48049Z" fill="white"/>
</g>
</svg>
