<svg width="14" height="16" viewBox="0 0 14 16" fill="none" xmlns="http://www.w3.org/2000/svg">
<path opacity="0.99" d="M0.4922 0.994091C0.21605 0.998391 -0.004308 1.22576 1.1998e-05 1.5019V14.4941C-0.004988 14.8322 0.247582 15.0035 0.500012 15.0019L1.00001 14.998V13.0019H3.00001V14.998H11V13.0019H13V14.998H13.5C13.7525 14.998 14.0048 14.8283 14 14.4902V1.5019C14.005 1.16382 13.7524 0.992488 13.5 0.994091L13 0.997997V3.0019H11V0.997997H3.00001V3.0019H1.00001V0.997997L0.4922 0.994091ZM1.00001 4.0019H3.00001V6.0019H1.00001V4.0019ZM11 4.0019H13V6.0019H11V4.0019ZM5.47657 5.00581C5.57707 5.00181 5.67673 5.02898 5.76173 5.08198L9.76173 7.58198C10.0746 7.77788 10.0746 8.23374 9.76173 8.42964L5.76173 10.9296C5.42863 11.1383 4.99601 10.8989 4.99611 10.5058V5.50581C4.99591 5.23711 5.20807 5.01681 5.47657 5.00581ZM1.00001 7.0019H3.00001V9.0019H1.00001V7.0019ZM11 7.0019H13V9.0019H11V7.0019ZM1.00001 10.0019H3.00001V11.9941H1.00001V10.0019ZM11 10.0019H13V11.9941H11V10.0019Z" fill="white"/>
</svg>
